<svg width="512" height="512" viewBox="0 0 512 512" xmlns="http://www.w3.org/2000/svg">
  <path d="M410.5 86.8c-28.7-28.7-72.2-40.7-112.5-31.5L256 65.5l-42 10.2c-40.3-9.2-83.8 2.8-112.5 31.5-38.9 38.9-46.7 97.4-23.7 143.6L256 476l178.2-225.2c23-46.2 15.2-104.7-23.7-144z" fill="#FCBF49"/>
  <path d="M256 90c-33.8 0-66.2 13.9-89.8 37.5-22.3 22.3-33.1 52.8-31 83l120.8 152.6 120.8-152.6c2.1-30.2-8.7-60.7-31-83C322.2 103.9 289.8 90 256 90z" fill="#F77F00"/>
  <circle cx="210" cy="180" r="25" fill="#E63946"/>
  <circle cx="310" cy="160" r="30" fill="#E63946"/>
  <circle cx="260" cy="250" r="28" fill="#E63946"/>
</svg>
